<svg id="visual" viewBox="0 0 675 900" width="675" height="900" xmlns="http://www.w3.org/2000/svg" xmlns:xlink="http://www.w3.org/1999/xlink" version="1.1"><rect x="0" y="0" width="675" height="900" fill="#6C87F5"></rect><defs><linearGradient id="grad1_0" x1="0%" y1="0%" x2="100%" y2="100%"><stop offset="30%" stop-color="#171e39" stop-opacity="1"></stop><stop offset="70%" stop-color="#171e39" stop-opacity="1"></stop></linearGradient></defs><defs><linearGradient id="grad1_1" x1="0%" y1="0%" x2="100%" y2="100%"><stop offset="30%" stop-color="#171e39" stop-opacity="1"></stop><stop offset="70%" stop-color="#212b51" stop-opacity="1"></stop></linearGradient></defs><defs><linearGradient id="grad1_2" x1="0%" y1="0%" x2="100%" y2="100%"><stop offset="30%" stop-color="#2c3a6a" stop-opacity="1"></stop><stop offset="70%" stop-color="#212b51" stop-opacity="1"></stop></linearGradient></defs><defs><linearGradient id="grad1_3" x1="0%" y1="0%" x2="100%" y2="100%"><stop offset="30%" stop-color="#2c3a6a" stop-opacity="1"></stop><stop offset="70%" stop-color="#384884" stop-opacity="1"></stop></linearGradient></defs><defs><linearGradient id="grad1_4" x1="0%" y1="0%" x2="100%" y2="100%"><stop offset="30%" stop-color="#44579f" stop-opacity="1"></stop><stop offset="70%" stop-color="#384884" stop-opacity="1"></stop></linearGradient></defs><defs><linearGradient id="grad1_5" x1="0%" y1="0%" x2="100%" y2="100%"><stop offset="30%" stop-color="#44579f" stop-opacity="1"></stop><stop offset="70%" stop-color="#5167bb" stop-opacity="1"></stop></linearGradient></defs><defs><linearGradient id="grad1_6" x1="0%" y1="0%" x2="100%" y2="100%"><stop offset="30%" stop-color="#5e77d8" stop-opacity="1"></stop><stop offset="70%" stop-color="#5167bb" stop-opacity="1"></stop></linearGradient></defs><defs><linearGradient id="grad1_7" x1="0%" y1="0%" x2="100%" y2="100%"><stop offset="30%" stop-color="#5e77d8" stop-opacity="1"></stop><stop offset="70%" stop-color="#6c87f5" stop-opacity="1"></stop></linearGradient></defs><defs><linearGradient id="grad2_0" x1="0%" y1="0%" x2="100%" y2="100%"><stop offset="30%" stop-color="#171e39" stop-opacity="1"></stop><stop offset="70%" stop-color="#171e39" stop-opacity="1"></stop></linearGradient></defs><defs><linearGradient id="grad2_1" x1="0%" y1="0%" x2="100%" y2="100%"><stop offset="30%" stop-color="#212b51" stop-opacity="1"></stop><stop offset="70%" stop-color="#171e39" stop-opacity="1"></stop></linearGradient></defs><defs><linearGradient id="grad2_2" x1="0%" y1="0%" x2="100%" y2="100%"><stop offset="30%" stop-color="#212b51" stop-opacity="1"></stop><stop offset="70%" stop-color="#2c3a6a" stop-opacity="1"></stop></linearGradient></defs><defs><linearGradient id="grad2_3" x1="0%" y1="0%" x2="100%" y2="100%"><stop offset="30%" stop-color="#384884" stop-opacity="1"></stop><stop offset="70%" stop-color="#2c3a6a" stop-opacity="1"></stop></linearGradient></defs><defs><linearGradient id="grad2_4" x1="0%" y1="0%" x2="100%" y2="100%"><stop offset="30%" stop-color="#384884" stop-opacity="1"></stop><stop offset="70%" stop-color="#44579f" stop-opacity="1"></stop></linearGradient></defs><defs><linearGradient id="grad2_5" x1="0%" y1="0%" x2="100%" y2="100%"><stop offset="30%" stop-color="#5167bb" stop-opacity="1"></stop><stop offset="70%" stop-color="#44579f" stop-opacity="1"></stop></linearGradient></defs><defs><linearGradient id="grad2_6" x1="0%" y1="0%" x2="100%" y2="100%"><stop offset="30%" stop-color="#5167bb" stop-opacity="1"></stop><stop offset="70%" stop-color="#5e77d8" stop-opacity="1"></stop></linearGradient></defs><defs><linearGradient id="grad2_7" x1="0%" y1="0%" x2="100%" y2="100%"><stop offset="30%" stop-color="#6c87f5" stop-opacity="1"></stop><stop offset="70%" stop-color="#5e77d8" stop-opacity="1"></stop></linearGradient></defs><g transform="translate(675, 0)"><path d="M0 562.5C-87.8 530.4 -175.6 498.4 -263 455.5C-350.4 412.7 -437.3 359 -487.1 281.3C-537 203.5 -549.7 101.8 -562.5 0L0 0Z" fill="#657fe6"></path><path d="M0 492.2C-76.8 464.1 -153.7 436.1 -230.1 398.6C-306.6 361.1 -382.6 314.1 -426.2 246.1C-469.9 178.1 -481 89 -492.2 0L0 0Z" fill="#586fc9"></path><path d="M0 421.9C-65.9 397.8 -131.7 373.8 -197.2 341.6C-262.8 309.5 -328 269.2 -365.4 210.9C-402.7 152.6 -412.3 76.3 -421.9 0L0 0Z" fill="#4b5fad"></path><path d="M0 351.6C-54.9 331.5 -109.8 311.5 -164.4 284.7C-219 257.9 -273.3 224.4 -304.5 175.8C-335.6 127.2 -343.6 63.6 -351.6 0L0 0Z" fill="#3e5091"></path><path d="M0 281.3C-43.9 265.2 -87.8 249.2 -131.5 227.8C-175.2 206.3 -218.6 179.5 -243.6 140.6C-268.5 101.8 -274.9 50.9 -281.2 0L0 0Z" fill="#324177"></path><path d="M0 210.9C-32.9 198.9 -65.9 186.9 -98.6 170.8C-131.4 154.7 -164 134.6 -182.7 105.5C-201.4 76.3 -206.2 38.2 -210.9 0L0 0Z" fill="#27325d"></path><path d="M0 140.6C-22 132.6 -43.9 124.6 -65.7 113.9C-87.6 103.2 -109.3 89.7 -121.8 70.3C-134.2 50.9 -137.4 25.4 -140.6 0L0 0Z" fill="#1c2545"></path><path d="M0 70.3C-11 66.3 -22 62.3 -32.9 56.9C-43.8 51.6 -54.7 44.9 -60.9 35.2C-67.1 25.4 -68.7 12.7 -70.3 0L0 0Z" fill="#171e39"></path></g><g transform="translate(0, 900)"><path d="M0 -562.5C104.8 -551.5 209.5 -540.4 281.2 -487.1C353 -433.8 391.6 -338.2 433 -250C474.4 -161.8 518.4 -80.9 562.5 0L0 0Z" fill="#657fe6"></path><path d="M0 -492.2C91.7 -482.5 183.3 -472.9 246.1 -426.2C308.8 -379.6 342.7 -296 378.9 -218.8C415.1 -141.5 453.6 -70.8 492.2 0L0 0Z" fill="#586fc9"></path><path d="M0 -421.9C78.6 -413.6 157.1 -405.3 210.9 -365.4C264.7 -325.4 293.7 -253.7 324.8 -187.5C355.8 -121.3 388.8 -60.7 421.9 0L0 0Z" fill="#4b5fad"></path><path d="M0 -351.6C65.5 -344.7 131 -337.8 175.8 -304.5C220.6 -271.1 244.8 -211.4 270.6 -156.3C296.5 -101.1 324 -50.6 351.6 0L0 0Z" fill="#3e5091"></path><path d="M0 -281.2C52.4 -275.7 104.8 -270.2 140.6 -243.6C176.5 -216.9 195.8 -169.1 216.5 -125C237.2 -80.9 259.2 -40.4 281.3 0L0 0Z" fill="#324177"></path><path d="M0 -210.9C39.3 -206.8 78.6 -202.7 105.5 -182.7C132.4 -162.7 146.9 -126.8 162.4 -93.8C177.9 -60.7 194.4 -30.3 210.9 0L0 0Z" fill="#27325d"></path><path d="M0 -140.6C26.2 -137.9 52.4 -135.1 70.3 -121.8C88.2 -108.5 97.9 -84.6 108.3 -62.5C118.6 -40.4 129.6 -20.2 140.6 0L0 0Z" fill="#1c2545"></path><path d="M0 -70.3C13.1 -68.9 26.2 -67.6 35.2 -60.9C44.1 -54.2 49 -42.3 54.1 -31.3C59.3 -20.2 64.8 -10.1 70.3 0L0 0Z" fill="#171e39"></path></g></svg>