<svg id="visual" viewBox="0 0 675 900" width="675" height="900" xmlns="http://www.w3.org/2000/svg" xmlns:xlink="http://www.w3.org/1999/xlink" version="1.1"><rect x="0" y="0" width="675" height="900" fill="#171E39"></rect><defs><linearGradient id="grad1_0" x1="0%" y1="0%" x2="100%" y2="100%"><stop offset="30%" stop-color="#6c87f5" stop-opacity="1"></stop><stop offset="70%" stop-color="#6c87f5" stop-opacity="1"></stop></linearGradient></defs><defs><linearGradient id="grad1_1" x1="0%" y1="0%" x2="100%" y2="100%"><stop offset="30%" stop-color="#6c87f5" stop-opacity="1"></stop><stop offset="70%" stop-color="#5e77d8" stop-opacity="1"></stop></linearGradient></defs><defs><linearGradient id="grad1_2" x1="0%" y1="0%" x2="100%" y2="100%"><stop offset="30%" stop-color="#5167bb" stop-opacity="1"></stop><stop offset="70%" stop-color="#5e77d8" stop-opacity="1"></stop></linearGradient></defs><defs><linearGradient id="grad1_3" x1="0%" y1="0%" x2="100%" y2="100%"><stop offset="30%" stop-color="#5167bb" stop-opacity="1"></stop><stop offset="70%" stop-color="#44579f" stop-opacity="1"></stop></linearGradient></defs><defs><linearGradient id="grad1_4" x1="0%" y1="0%" x2="100%" y2="100%"><stop offset="30%" stop-color="#384884" stop-opacity="1"></stop><stop offset="70%" stop-color="#44579f" stop-opacity="1"></stop></linearGradient></defs><defs><linearGradient id="grad1_5" x1="0%" y1="0%" x2="100%" y2="100%"><stop offset="30%" stop-color="#384884" stop-opacity="1"></stop><stop offset="70%" stop-color="#2c3a6a" stop-opacity="1"></stop></linearGradient></defs><defs><linearGradient id="grad1_6" x1="0%" y1="0%" x2="100%" y2="100%"><stop offset="30%" stop-color="#212b51" stop-opacity="1"></stop><stop offset="70%" stop-color="#2c3a6a" stop-opacity="1"></stop></linearGradient></defs><defs><linearGradient id="grad1_7" x1="0%" y1="0%" x2="100%" y2="100%"><stop offset="30%" stop-color="#212b51" stop-opacity="1"></stop><stop offset="70%" stop-color="#171e39" stop-opacity="1"></stop></linearGradient></defs><defs><linearGradient id="grad2_0" x1="0%" y1="0%" x2="100%" y2="100%"><stop offset="30%" stop-color="#6c87f5" stop-opacity="1"></stop><stop offset="70%" stop-color="#6c87f5" stop-opacity="1"></stop></linearGradient></defs><defs><linearGradient id="grad2_1" x1="0%" y1="0%" x2="100%" y2="100%"><stop offset="30%" stop-color="#5e77d8" stop-opacity="1"></stop><stop offset="70%" stop-color="#6c87f5" stop-opacity="1"></stop></linearGradient></defs><defs><linearGradient id="grad2_2" x1="0%" y1="0%" x2="100%" y2="100%"><stop offset="30%" stop-color="#5e77d8" stop-opacity="1"></stop><stop offset="70%" stop-color="#5167bb" stop-opacity="1"></stop></linearGradient></defs><defs><linearGradient id="grad2_3" x1="0%" y1="0%" x2="100%" y2="100%"><stop offset="30%" stop-color="#44579f" stop-opacity="1"></stop><stop offset="70%" stop-color="#5167bb" stop-opacity="1"></stop></linearGradient></defs><defs><linearGradient id="grad2_4" x1="0%" y1="0%" x2="100%" y2="100%"><stop offset="30%" stop-color="#44579f" stop-opacity="1"></stop><stop offset="70%" stop-color="#384884" stop-opacity="1"></stop></linearGradient></defs><defs><linearGradient id="grad2_5" x1="0%" y1="0%" x2="100%" y2="100%"><stop offset="30%" stop-color="#2c3a6a" stop-opacity="1"></stop><stop offset="70%" stop-color="#384884" stop-opacity="1"></stop></linearGradient></defs><defs><linearGradient id="grad2_6" x1="0%" y1="0%" x2="100%" y2="100%"><stop offset="30%" stop-color="#2c3a6a" stop-opacity="1"></stop><stop offset="70%" stop-color="#212b51" stop-opacity="1"></stop></linearGradient></defs><defs><linearGradient id="grad2_7" x1="0%" y1="0%" x2="100%" y2="100%"><stop offset="30%" stop-color="#171e39" stop-opacity="1"></stop><stop offset="70%" stop-color="#212b51" stop-opacity="1"></stop></linearGradient></defs><g transform="translate(675, 0)"><path d="M0 555C-46.6 544 -93.2 533 -139.5 520.6C-185.8 508.2 -231.9 494.4 -272 471.1C-312.1 447.9 -346.1 415.2 -383.3 383.3C-420.4 351.3 -460.6 320.2 -484.1 279.5C-507.6 238.8 -514.2 188.7 -524.5 140.5C-534.8 92.4 -548.6 46.2 -562.5 0L0 0Z" fill="#1c2545"></path><path d="M0 485.6C-40.8 476 -81.5 466.4 -122.1 455.6C-162.6 444.7 -202.9 432.6 -238 412.2C-273.1 391.9 -302.8 363.3 -335.3 335.3C-367.8 307.4 -403.1 280.1 -423.6 244.6C-444.1 209 -450 165.1 -458.9 123C-467.9 80.8 -480.1 40.4 -492.2 0L0 0Z" fill="#27325d"></path><path d="M0 416.3C-34.9 408 -69.9 399.8 -104.6 390.5C-139.4 381.2 -174 370.8 -204 353.3C-234 335.9 -259.6 311.4 -287.4 287.4C-315.3 263.5 -345.5 240.1 -363.1 209.6C-380.7 179.1 -385.7 141.5 -393.4 105.4C-401.1 69.3 -411.5 34.6 -421.9 0L0 0Z" fill="#324177"></path><path d="M0 346.9C-29.1 340 -58.2 333.2 -87.2 325.4C-116.2 317.6 -145 309 -170 294.4C-195 279.9 -216.3 259.5 -239.5 239.5C-262.7 219.6 -287.9 200.1 -302.6 174.7C-317.2 149.3 -321.4 117.9 -327.8 87.8C-334.2 57.7 -342.9 28.9 -351.6 0L0 0Z" fill="#3e5091"></path><path d="M0 277.5C-23.3 272 -46.6 266.5 -69.8 260.3C-92.9 254.1 -116 247.2 -136 235.6C-156 223.9 -173.1 207.6 -191.6 191.6C-210.2 175.7 -230.3 160.1 -242.1 139.8C-253.8 119.4 -257.1 94.4 -262.2 70.3C-267.4 46.2 -274.3 23.1 -281.2 0L0 0Z" fill="#4b5fad"></path><path d="M0 208.1C-17.5 204 -34.9 199.9 -52.3 195.2C-69.7 190.6 -87 185.4 -102 176.7C-117 167.9 -129.8 155.7 -143.7 143.7C-157.6 131.7 -172.7 120.1 -181.5 104.8C-190.3 89.6 -192.8 70.8 -196.7 52.7C-200.5 34.6 -205.7 17.3 -210.9 0L0 0Z" fill="#586fc9"></path><path d="M0 138.8C-11.6 136 -23.3 133.3 -34.9 130.2C-46.5 127.1 -58 123.6 -68 117.8C-78 112 -86.5 103.8 -95.8 95.8C-105.1 87.8 -115.2 80 -121 69.9C-126.9 59.7 -128.6 47.2 -131.1 35.1C-133.7 23.1 -137.2 11.5 -140.6 0L0 0Z" fill="#657fe6"></path><path d="M0 69.4C-5.8 68 -11.6 66.6 -17.4 65.1C-23.2 63.5 -29 61.8 -34 58.9C-39 56 -43.3 51.9 -47.9 47.9C-52.5 43.9 -57.6 40 -60.5 34.9C-63.4 29.9 -64.3 23.6 -65.6 17.6C-66.8 11.5 -68.6 5.8 -70.3 0L0 0Z" fill="#6c87f5"></path></g><g transform="translate(0, 900)"><path d="M0 -561C47.4 -549.4 94.7 -537.8 140 -522.6C185.3 -507.4 228.5 -488.6 268.5 -465.1C308.5 -441.5 345.4 -413.2 381.8 -381.8C418.3 -350.5 454.2 -316.1 476.3 -275C498.4 -233.9 506.6 -185.9 518.7 -139C530.8 -92 546.6 -46 562.5 0L0 0Z" fill="#1c2545"></path><path d="M0 -490.9C41.5 -480.7 82.9 -470.5 122.5 -457.2C162.1 -444 199.9 -427.5 234.9 -406.9C270 -386.3 302.2 -361.5 334.1 -334.1C366 -306.7 397.4 -276.6 416.8 -240.6C436.1 -204.6 443.3 -162.7 453.9 -121.6C464.4 -80.5 478.3 -40.3 492.2 0L0 0Z" fill="#27325d"></path><path d="M0 -420.7C35.5 -412 71.1 -403.3 105 -391.9C139 -380.5 171.4 -366.5 201.4 -348.8C231.4 -331.1 259.1 -309.9 286.4 -286.4C313.7 -262.9 340.7 -237.1 357.2 -206.3C373.8 -175.4 380 -139.5 389 -104.2C398.1 -69 410 -34.5 421.9 0L0 0Z" fill="#324177"></path><path d="M0 -350.6C29.6 -343.4 59.2 -336.1 87.5 -326.6C115.8 -317.1 142.8 -305.4 167.8 -290.7C192.8 -275.9 215.9 -258.2 238.6 -238.6C261.4 -219.1 283.9 -197.6 297.7 -171.9C311.5 -146.2 316.7 -116.2 324.2 -86.9C331.7 -57.5 341.6 -28.8 351.6 0L0 0Z" fill="#3e5091"></path><path d="M0 -280.5C23.7 -274.7 47.4 -268.9 70 -261.3C92.6 -253.7 114.2 -244.3 134.2 -232.5C154.3 -220.8 172.7 -206.6 190.9 -190.9C209.1 -175.2 227.1 -158.1 238.2 -137.5C249.2 -116.9 253.3 -93 259.4 -69.5C265.4 -46 273.3 -23 281.3 0L0 0Z" fill="#4b5fad"></path><path d="M0 -210.4C17.8 -206 35.5 -201.7 52.5 -196C69.5 -190.3 85.7 -183.2 100.7 -174.4C115.7 -165.6 129.5 -154.9 143.2 -143.2C156.8 -131.4 170.3 -118.6 178.6 -103.1C186.9 -87.7 190 -69.7 194.5 -52.1C199 -34.5 205 -17.3 210.9 0L0 0Z" fill="#586fc9"></path><path d="M0 -140.2C11.8 -137.3 23.7 -134.4 35 -130.6C46.3 -126.8 57.1 -122.2 67.1 -116.3C77.1 -110.4 86.4 -103.3 95.5 -95.5C104.6 -87.6 113.6 -79 119.1 -68.8C124.6 -58.5 126.7 -46.5 129.7 -34.7C132.7 -23 136.7 -11.5 140.6 0L0 0Z" fill="#657fe6"></path><path d="M0 -70.1C5.9 -68.7 11.8 -67.2 17.5 -65.3C23.2 -63.4 28.6 -61.1 33.6 -58.1C38.6 -55.2 43.2 -51.6 47.7 -47.7C52.3 -43.8 56.8 -39.5 59.5 -34.4C62.3 -29.2 63.3 -23.2 64.8 -17.4C66.3 -11.5 68.3 -5.8 70.3 0L0 0Z" fill="#6c87f5"></path></g></svg>